. 
  
http://www.torrentday.com   -    Your Key To The Scene.

Now TvTeam with [No-RAR] Releases.

(((((((((((((= Enjoy No RAR releases =))))))))))))))))))))

...................................NFO:....................................

.
                                                     
                                                   
                                                         
                                                          
                                                           
                                                          
                                                          
                                                          
                                                           
                                                         
                                                          
                                                        
                                                      
                                     
                                                 
                                                   
                                             
                                              
                                                     
                                                      
                                                      
                                                      
                                                    
                                                     
                                                   
                                                     
                                                     
                                                      
                                                     
                                                      
                                                    
                 ARTiCHOKE                        
                                                
                      
                                                        
                                                      
                                                      
                                               
                                          
                                                   
                                            
                                                    
                                                       
                                                        
                                                      
                                                
                                                        
                                                 
                                              
                                                  
                                                
                                                  
                                        

      
                                
      SPRiNTER proudly presents...     
                                
      
 
 Dead.By.Dawn.2008.RERiP.DVDRip.XviD-SPRiNTER  http://www.imdb.com/title/tt1379250/
 Subtitles: N/A

 Date: 2010.05

 Director: Nigel Hartwell
 Plot: A group of teenagers head out to a cottage to party hard, only to be murdered one by one by a vengeful soul that lives in the cottage
 Genre: Horror | Thriller

 Cast

	Susan Bailey	 ...	Susan Beach
	Edward Bridle	 ...	Teacher
	Mike Bruce	 ...	Mark Masterson
	Anthony Cortese	 ...	Jordan Schrieder
	Tiffany Edwardsen	 ...	Tanya Beach
	Cheyenne Ennis	 ...	Kim Sills
	Scott Fraser	 ...	Scuba diver
	Lana Hartwell	 ...	Tanya Beach
	Nigel Hartwell	 ...	Chris Schrieder
	Brad Hughes	 ...	Student
	Norman McIsaac	 ...	Paul Schrieder
	Anna Lisa Pantusa		
	Kim Sills	 ...	Herself
	Christopher Simis		
	Charles Wahl	 ...	Ryan Levy

      
                 
      Release notes     
                 
      

 Previous release was undersized!


      
           
     Greetings    
           
      


NTX aAF FiCO HNR CiNEFiLE AEN HUMANiSM MOViERUSH


      
           
      Details     
           
      


Format                           : AVI
Format/Info                      : Audio Video Interleave
File size                        : 702 MiB
Duration                         : 1h 15mn
Overall bit rate                 : 1 305 Kbps
Writing application              : VirtualDubMod 1.5.10.2 (build 2540/release)
Writing library                  : VirtualDubMod build 2540/release

Video
ID                               : 0
Format                           : MPEG-4 Visual
Format profile                   : AdvancedSimple@L5
Format settings, BVOP            : Yes
Format settings, QPel            : No
Format settings, GMC             : No warppoints
Format settings, Matrix          : Default (H.263)
Codec ID                         : XVID
Codec ID/Hint                    : XviD
Duration                         : 1h 15mn
Bit rate                         : 1 158 Kbps
Width                            : 560 pixels
Height                           : 416 pixels
Display aspect ratio             : 4:3
Frame rate                       : 23.976 fps
Resolution                       : 24 bits
Colorimetry                      : 4:2:0
Scan type                        : Progressive
Bits/(Pixel*Frame)               : 0.207
Stream size                      : 623 MiB (89%)
Writing library                  : XviD 1.2.1 (UTC 2008-12-04)

Audio
ID                               : 1
Format                           : MPEG Audio
Format version                   : Version 1
Format profile                   : Layer 3
Codec ID                         : 55
Codec ID/Hint                    : MP3
Duration                         : 1h 15mn
Bit rate mode                    : Variable
Bit rate                         : 135 Kbps
Minimum bit rate                 : 128 Kbps
Channel(s)                       : 2 channels
Sampling rate                    : 48.0 KHz
Resolution                       : 16 bits
Stream size                      : 72.4 MiB (10%)
Alignment                        : Aligned on interleaves
Interleave, duration             : 24 ms (0.58 video frame)
Interleave, preload duration     : 479 ms
Writing library                  : LAME3.95 
Encoding settings                : -m j -V 4 -q 3 -lowpass 18 --vbr-old -b 128